<?xml version="1.0" encoding="utf-8"?>
<!-- Generator: Adobe Illustrator 16.0.0, SVG Export Plug-In . SVG Version: 6.00 Build 0)  -->
<!DOCTYPE svg PUBLIC "-//W3C//DTD SVG 1.1//EN" "http://www.w3.org/Graphics/SVG/1.1/DTD/svg11.dtd">
<svg version="1.1" xmlns="http://www.w3.org/2000/svg" xmlns:xlink="http://www.w3.org/1999/xlink" x="0px" y="0px"
	 width="180.48px" height="61.44px" viewBox="0 0 180.48 61.44" enable-background="new 0 0 180.48 61.44" xml:space="preserve">
<g id="App_Store_1_" enable-background="new    ">
	<g id="App_Store">
		<g>
			<path fill-rule="evenodd" clip-rule="evenodd" fill="#1977CE" d="M90.169,26.429l-4.73,13.063h2.232l1.431-4.316h4.673
				l1.431,4.316h2.27l-4.597-13.063H90.169z M89.654,33.529l1.831-5.376l1.735,5.376H89.654z M104.142,29.175
				c-1.03,0-2.079,0.284-2.651,0.757l-0.763,1.079V29.44h-2.099v13.764h2.099V38.13l0.667,1.003
				c0.516,0.397,1.564,0.625,2.404,0.625c2.612,0,4.901-1.779,4.901-5.472C108.7,31.352,107.041,29.175,104.142,29.175z
				 M103.551,38.244c-1.336,0-2.823-0.909-2.823-3.37v-0.511c0-2.688,1.354-3.673,2.918-3.673c1.831,0,2.843,1.609,2.843,3.787
				C106.488,36.975,105.229,38.244,103.551,38.244z M115.813,29.175c-1.03,0-2.079,0.284-2.651,0.757l-0.764,1.079V29.44H110.3
				v13.764h2.098V38.13l0.668,1.003c0.515,0.397,1.564,0.625,2.403,0.625c2.613,0,4.902-1.779,4.902-5.472
				C120.371,31.352,118.711,29.175,115.813,29.175z M115.221,38.244c-1.335,0-2.823-0.909-2.823-3.37v-0.511
				c0-2.688,1.354-3.673,2.919-3.673c1.831,0,2.842,1.609,2.842,3.787C118.158,36.975,116.899,38.244,115.221,38.244z
				 M131.375,31.882c-2.041-0.474-2.823-1.061-2.823-2.329c0-1.23,0.974-1.798,2.213-1.798c1.526,0,2.403,0.89,2.556,2.385h2.175
				c-0.267-2.272-1.697-3.976-4.616-3.976c-2.46,0-4.539,1.42-4.539,3.729c0,2.272,1.659,3.199,4.158,3.787
				c2.136,0.492,2.938,1.192,2.938,2.556c0,1.192-1.088,1.931-2.461,1.931c-1.545,0-2.689-0.852-3.033-2.461h-2.174
				c0.267,2.632,2.193,4.052,5.207,4.052c2.556,0,4.673-1.438,4.673-3.806C135.647,33.776,134.274,32.544,131.375,31.882z
				 M139.987,27.111h-2.078v2.405h-1.431v1.458h1.431v5.453c0,0.567,0,1.003,0.019,1.344c0.096,1.325,0.782,1.912,2.365,1.912
				c0.515,0,1.011-0.037,1.545-0.113V38.13c-1.373,0.132-1.755-0.076-1.831-1.061c-0.02-0.266-0.02-0.492-0.02-0.833v-5.264h1.984
				v-1.458h-1.984V27.111z M147.563,29.175c-3.414,0-5.131,2.348-5.131,5.283s1.717,5.301,5.131,5.301
				c3.396,0,5.131-2.366,5.131-5.301S150.959,29.175,147.563,29.175z M147.563,38.244c-1.851,0-2.918-1.515-2.918-3.786
				c0-2.272,1.067-3.768,2.918-3.768c1.831,0,2.899,1.496,2.899,3.768C150.463,36.729,149.395,38.244,147.563,38.244z
				 M157.206,29.762l-0.858,1.382V29.44h-2.098v10.053h2.098v-5.225c0-2.48,1.202-3.465,3.128-3.333v-1.628
				c-0.209-0.076-0.419-0.114-0.705-0.114C158.256,29.193,157.664,29.402,157.206,29.762z M169.197,34.21
				c0-2.84-1.583-5.036-4.521-5.036c-2.918,0-4.959,2.139-4.959,5.32c0,3.56,2.041,5.264,4.749,5.264
				c2.213,0,4.14-1.136,4.578-3.521h-2.117c-0.21,1.269-1.163,2.007-2.384,2.007c-1.374,0-2.479-0.795-2.651-3.199h7.268
				C169.197,34.684,169.197,34.4,169.197,34.21z M161.911,33.586c0.229-1.932,1.259-2.897,2.689-2.897
				c1.469,0,2.289,1.042,2.441,2.897H161.911z"/>
		</g>
	</g>
</g>
<g id="Group_1_1_">
	<g id="text_1_" display="none">
		<g id="Kali_copy" display="inline">
			<g>
				<path fill-rule="evenodd" clip-rule="evenodd" fill="#1977CD" d="M25.898,57.719c0,0.344,0.009,0.955,0.051,1.557l-2.229-4.094
					h-1.905v5.935h1.531v-2.451c0-0.344,0-0.869-0.051-1.471l2.135,3.922h1.999v-5.935h-1.531V57.719z M28.691,59.135h2.179v-0.192
					h-2.179v-1.788h2.316v-0.193h-2.543v4.155h2.603v-0.199h-2.376V59.135z M31.447,57.155h1.542v3.962h0.226v-3.962h1.548v-0.193
					h-3.317V57.155z M39.31,57.608h-2.348v-2.426h-1.531v5.935h1.531v-2.305h2.348v2.305h1.531v-5.935H39.31V57.608z M44.372,59.683
					c0,0.139-0.006,0.253-0.018,0.374c-0.048,0.523-0.393,0.945-1.138,0.945c-0.738,0-1.083-0.422-1.131-0.945
					c-0.012-0.121-0.018-0.235-0.018-0.374v-2.722h-0.227v2.716c0,0.103,0.006,0.229,0.018,0.397
					c0.047,0.65,0.494,1.126,1.357,1.126c0.87,0,1.316-0.476,1.364-1.126c0.012-0.169,0.018-0.295,0.018-0.397v-2.716h-0.227V59.683
					z M48.253,56.961v2.21c0,0.542,0,1.187,0.012,1.729l-2.347-3.938h-0.345v4.155H45.8v-2.216c0-0.542,0-1.181-0.012-1.723
					l2.34,3.938h0.352l-0.006-4.155H48.253z M49.103,57.155h1.542v3.962h0.226v-3.962h1.548v-0.193h-3.317V57.155z M53.211,59.135
					h2.179v-0.192h-2.179v-1.788h2.316v-0.193h-2.543v4.155h2.603v-0.199h-2.376V59.135z M58.795,59.991
					c-0.048-0.458-0.238-0.831-0.602-0.958c0.482-0.102,0.816-0.469,0.816-1.005c0-0.62-0.375-0.958-1-1.036
					c-0.19-0.023-0.369-0.03-0.578-0.03h-1.084v4.155h0.227v-1.976h0.911c0.095,0,0.232,0,0.357,0.007
					c0.476,0.023,0.673,0.421,0.726,0.879c0.066,0.578,0.149,0.824,0.245,1.09h0.256C58.944,60.864,58.861,60.592,58.795,59.991z
					 M57.491,58.943h-0.917v-1.782h0.857c0.208,0,0.357,0.006,0.524,0.03c0.518,0.066,0.81,0.337,0.81,0.854
					c0,0.506-0.328,0.843-0.84,0.886C57.753,58.943,57.652,58.943,57.491,58.943z M35.813,53.26l0.27-0.296l1.004,1.288h0.65
					l-1.3-1.592l1.371-1.493h-0.575l-1.42,1.569v-1.569h-0.486v3.085h0.486V53.26z M39.28,51.167l-1.097,3.085H38.7l0.332-1.02
					h1.083l0.332,1.02h0.526l-1.066-3.085H39.28z M39.16,52.844l0.425-1.271l0.402,1.271H39.16z M43.843,53.846H42.22v-2.679h-0.486
					v3.085h2.109V53.846z M44.665,54.252h0.486v-3.085h-0.486V54.252z"/>
			</g>
		</g>
	</g>
	<g id="Shadow_1_" display="none">
		<g id="Color_Fill_12" display="inline">
			<g>
				<path fill="#FFFFFF" d="M47.422,43.713c-7.012-1.504-7.223-1.43-12.797-0.128c-3.024-0.059-18.87,2.187-24.887,6.72
					c6.708-2.839,14.916-5.194,30.976-5.194s29.96,5.194,29.96,5.194S59.579,44.688,47.422,43.713z"/>
			</g>
		</g>
	</g>
	<g id="Dragon_Top_copy_1_">
		<g id="Color_Fill_13">
			<g>
				<path fill="#FFFFFF" d="M66.674,32.015c-0.361-0.855-1.114-1.217-1.114-1.217s-0.852,2.235,0.623,3.321
					c1.475,1.085,2.425,0.789,2.425,0.789S67.035,32.871,66.674,32.015z"/>
			</g>
		</g>
		<g id="Color_Fill_12_copy">
			<g>
				<path fill-rule="evenodd" clip-rule="evenodd" fill="#1977CE" d="M53.015,50.476c-2.988-8.994-9.699-11.878-12.519-13.802
					c-2.819-1.923-7.047-9.39-0.789-12.275c6.259-2.884,17.402,5.426,17.402,5.426s-0.47,4.026,1.446,5.586
					c1.915,1.559,6.434,3.046,8.603,4.46c2.168,1.415,7.084,5.514,7.987,7.146c1.88-2.104,5.061-4.099,5.964-4.643
					c-3.65-0.254-7.785-2.984-8.846-3.826c-1.061-0.843-2.132-2.017-2.117-2.232c0.016-0.215,0.506-0.445,0.69-0.445
					s0.138-0.708-0.077-0.984c-0.215-0.276-1.119-1.338-1.671-1.999c-0.551-0.662-3.694-6.184-3.832-6.476
					c-0.138-0.292-0.475-0.308-1.073-0.261c-0.598,0.045-3.403,0.461-3.403,0.461s-1.622-1.707-1.711-1.955
					c-2.413-2.394-5.016-5.12-7.9-7.139c-1.138-0.938-3.837-1.926-3.837-1.926s-1.75-4.064-5.185-4.987
					c2.177,2.116,2.031,4.244,2.031,4.244s-1.582-0.326-4.32-0.258c-0.808-1.352-3.276-2.23-5.678-1.802
					c2.154,0.699,2.94,2.455,2.94,2.455s-2.693,0.495-3.793,1.396c-0.673-0.856-4.107-0.585-5.499,0.811
					c1.481-0.338,3.389,0.135,3.703,0.518c-2.244,1.194-2.76,3.378-2.76,3.378s-3.389,0.158-4.376,2.725
					c1.503-1.036,3.209-0.653,3.209-0.653s-1.283,1.458-1.607,4.482c-1.1,0.563-2.231,2.589-2.164,3.738
					c0.695-1.486,2.087-1.802,2.087-1.802s-0.656,5.901,2.381,9.208c4.651,5.064,3.548,8.576,3.253,11.026
					C27.21,50.35,8.583,54.209,0.237,60.261c9.304-3.789,21.032-7.918,43.305-7.918c22.273,0,41.896,8.031,41.896,8.031
					S69.875,51.777,53.015,50.476z M65.865,31.355c0,0,1.158,2.37,2.122,3.193c-0.724-0.049-1.591-0.58-2.218-1.452
					C65.142,32.225,65.865,31.355,65.865,31.355z M61.772,24.895l2.259-0.302C55.091,14.883,40.6,5.201,24.116,0.484
					C47.25,8.451,61.772,24.895,61.772,24.895z"/>
			</g>
		</g>
		<g id="Color_Fill_11_copy">
			<g>
				<path fill="#FFFFFF" d="M41.033,37.751c-1.622-0.899-3.539-2.323-4.952-6.253c-1.494-4.154,1.496-8.985,7.78-8.319
					c5.687,0.603,12.124,5.793,13.191,6.307c-0.856-1.117-5.638-6.034-9.394-8.261c-3.756-2.227-10.627-1.717-13.956,1.495
					c-3.33,3.212-2.391,11.735,2.945,16.616c5.335,4.883,3.799,10.493,3.799,10.493s6.947-0.129,11.729,0.557
					C49.613,42.291,42.655,38.651,41.033,37.751z"/>
			</g>
		</g>
	</g>
</g>
</svg>
