<?xml version="1.0" standalone="no"?>
<!DOCTYPE svg PUBLIC "-//W3C//DTD SVG 20010904//EN"
 "http://www.w3.org/TR/2001/REC-SVG-20010904/DTD/svg10.dtd">
<svg version="1.0" xmlns="http://www.w3.org/2000/svg"
 width="1280.000000pt" height="853.000000pt" viewBox="0 0 1280.000000 853.000000"
 preserveAspectRatio="xMidYMid meet">

<g transform="translate(0.000000,853.000000) scale(0.100000,-0.100000)"
fill="#000000" stroke="none">
<path d="M4758 7763 c18 -2 45 -2 60 0 15 2 0 4 -33 4 -33 0 -45 -2 -27 -4z"/>
<path d="M7378 7763 c12 -2 32 -2 45 0 12 2 2 4 -23 4 -25 0 -35 -2 -22 -4z"/>
<path d="M9103 7763 c9 -2 25 -2 35 0 9 3 1 5 -18 5 -19 0 -27 -2 -17 -5z"/>
<path d="M4698 7753 c7 -3 16 -2 19 1 4 3 -2 6 -13 5 -11 0 -14 -3 -6 -6z"/>
<path d="M4885 7746 c56 -18 102 -43 155 -83 l45 -35 -40 37 c-44 41 -148 95
-180 94 -11 0 -2 -6 20 -13z"/>
<path d="M7275 7745 c-39 -17 -21 -18 25 0 19 7 28 14 20 14 -8 0 -28 -6 -45
-14z"/>
<path d="M7458 7753 c6 -2 18 -2 25 0 6 3 1 5 -13 5 -14 0 -19 -2 -12 -5z"/>
<path d="M9188 7753 c7 -3 16 -2 19 1 4 3 -2 6 -13 5 -11 0 -14 -3 -6 -6z"/>
<path d="M4640 7740 c-18 -12 -2 -12 25 0 13 6 15 9 5 9 -8 0 -22 -4 -30 -9z"/>
<path d="M7501 7746 c8 -8 79 -35 79 -30 0 3 -16 12 -35 20 -33 14 -53 18 -44
10z"/>
<path d="M9231 7746 c10 -9 69 -36 69 -32 0 6 -55 36 -66 36 -4 0 -5 -2 -3 -4z"/>
<path d="M4520 7661 c-43 -43 -91 -117 -90 -138 1 -4 12 13 25 38 13 25 48 69
76 98 29 28 50 51 45 51 -4 0 -29 -22 -56 -49z"/>
<path d="M7154 7674 c-32 -29 -33 -32 -8 -15 29 19 62 51 52 51 -3 0 -22 -16
-44 -36z"/>
<path d="M7636 7667 c31 -28 65 -73 85 -111 19 -36 35 -63 37 -61 2 2 -8 27
-23 57 -27 54 -93 130 -130 150 -11 6 3 -10 31 -35z"/>
<path d="M9338 7684 c18 -16 44 -42 58 -59 l26 -30 -24 34 c-13 19 -40 46 -59
59 l-34 25 33 -29z"/>
<path d="M3267 7610 c-16 -12 -40 -20 -65 -20 -25 0 -62 -11 -98 -31 -77 -40
-92 -55 -104 -101 -6 -21 -17 -38 -24 -38 -8 0 -22 -8 -33 -17 -10 -10 -14
-15 -9 -10 19 14 55 7 66 -12 8 -16 5 -23 -15 -39 -23 -19 -24 -20 -5 -25 11
-3 24 -16 29 -29 10 -25 36 -51 90 -88 25 -17 54 -25 107 -29 68 -6 73 -5 76
14 5 31 50 27 59 -5 6 -23 7 -22 8 8 1 18 12 48 25 65 14 20 27 57 34 97 9 59
8 71 -15 130 -13 36 -29 79 -35 95 -22 61 -46 70 -91 35z m66 -11 c15 -24 1
-49 -27 -49 -34 0 -52 33 -30 55 19 19 43 16 57 -6z m-81 -45 c4 -3 8 -16 8
-30 0 -25 -1 -25 -62 -18 -35 4 -66 9 -70 11 -16 9 -7 34 15 43 21 9 90 5 109
-6z m-142 -49 c10 -12 6 -24 -21 -65 -18 -27 -33 -50 -35 -50 -40 0 -44 50 -8
97 27 36 45 41 64 18z m245 -11 c43 -47 44 -140 1 -105 -25 21 -68 101 -62
117 8 22 34 17 61 -12z m-147 -24 c47 0 56 -14 63 -92 9 -101 3 -110 -74 -106
l-62 3 -14 52 c-21 80 5 164 46 149 8 -3 27 -6 41 -6z m-123 -152 c23 -45 24
-53 11 -66 -21 -22 -44 -8 -66 40 -13 30 -16 47 -9 60 17 31 37 20 64 -34z"/>
<path d="M7099 7613 c-13 -16 -12 -17 4 -4 9 7 17 15 17 17 0 8 -8 3 -21 -13z"/>
<path d="M5100 7590 c6 -11 13 -20 16 -20 2 0 0 9 -6 20 -6 11 -13 20 -16 20
-2 0 0 -9 6 -20z"/>
<path d="M7053 7533 c-8 -21 -17 -56 -19 -78 l-3 -40 8 41 c5 22 16 57 25 77
8 21 13 37 10 37 -3 0 -12 -17 -21 -37z"/>
<path d="M9082 7517 c-23 -24 -67 -116 -59 -123 3 -3 15 16 27 41 12 26 34 60
47 76 29 34 16 40 -15 6z"/>
<path d="M4716 7522 c-5 -9 75 -52 95 -52 17 0 -10 29 -42 46 -32 16 -46 18
-53 6z"/>
<path d="M5148 7480 c9 -45 9 -134 -1 -185 -6 -35 -6 -37 4 -15 16 33 17 189
1 215 -10 17 -11 15 -4 -15z"/>
<path d="M9461 7494 c0 -11 3 -14 6 -6 3 7 2 16 -1 19 -3 4 -6 -2 -5 -13z"/>
<path d="M7762 7460 c0 -14 2 -19 5 -12 2 6 2 18 0 25 -3 6 -5 1 -5 -13z"/>
<path d="M9471 7454 c0 -11 3 -14 6 -6 3 7 2 16 -1 19 -3 4 -6 -2 -5 -13z"/>
<path d="M3561 7424 c0 -11 3 -14 6 -6 3 7 2 16 -1 19 -3 4 -6 -2 -5 -13z"/>
<path d="M4402 7395 c0 -16 2 -22 5 -12 2 9 2 23 0 30 -3 6 -5 -1 -5 -18z"/>
<path d="M4810 7413 c0 -6 8 -17 18 -24 16 -13 16 -13 2 6 -8 11 -16 22 -17
24 -2 2 -3 0 -3 -6z"/>
<path d="M8743 7385 c0 -22 2 -30 4 -17 2 12 2 30 0 40 -3 9 -5 -1 -4 -23z"/>
<path d="M9075 7390 c-33 -35 -31 -47 4 -19 13 10 20 19 16 19 -4 0 -2 7 5 15
22 26 5 16 -25 -15z"/>
<path d="M7772 7370 c0 -14 2 -19 5 -12 2 6 2 18 0 25 -3 6 -5 1 -5 -13z"/>
<path d="M4875 7360 c-3 -5 9 -17 27 -26 l33 -17 -24 27 c-28 29 -28 29 -36
16z"/>
<path d="M3562 7335 c0 -16 2 -22 5 -12 2 9 2 23 0 30 -3 6 -5 -1 -5 -18z"/>
<path d="M7482 7345 c-20 -9 -22 -15 -16 -50 3 -22 7 -41 8 -41 12 -11 90 -44
94 -39 3 3 -10 36 -28 73 -33 63 -37 67 -58 57z"/>
<path d="M7034 7317 c11 -83 103 -224 171 -259 11 -6 -5 13 -36 43 -70 68 -85
91 -115 181 -17 51 -23 62 -20 35z"/>
<path d="M7281 7340 c-12 -8 -63 -110 -59 -120 2 -5 25 -1 52 8 45 16 50 21
62 62 8 25 14 48 14 53 0 8 -56 6 -69 -3z"/>
<path d="M9471 7324 c0 -11 3 -14 6 -6 3 7 2 16 -1 19 -3 4 -6 -2 -5 -13z"/>
<path d="M7757 7300 c-16 -82 -67 -158 -147 -223 -35 -28 -35 -28 -4 -13 38
18 97 83 122 133 26 52 45 110 39 126 -2 6 -7 -4 -10 -23z"/>
<path d="M8751 7304 c0 -11 3 -14 6 -6 3 7 2 16 -1 19 -3 4 -6 -2 -5 -13z"/>
<path d="M9461 7290 c-2 -36 -52 -120 -99 -167 -45 -45 -104 -81 -172 -104
-21 -8 -19 -8 9 -4 56 8 119 46 172 102 51 54 105 153 96 176 -4 8 -6 7 -6 -3z"/>
<path d="M4426 7260 c16 -64 99 -173 155 -203 31 -16 31 -16 9 0 -50 34 -110
107 -140 167 -17 33 -28 50 -24 36z"/>
<path d="M5102 7191 c-40 -71 -125 -136 -231 -177 l-36 -14 35 6 c78 14 170
78 224 157 22 32 37 59 34 62 -2 3 -14 -13 -26 -34z"/>
<path d="M9016 7201 c-4 -7 -5 -15 -2 -18 9 -9 19 4 14 18 -4 11 -6 11 -12 0z"/>
<path d="M8796 7187 c3 -10 9 -15 12 -12 3 3 0 11 -7 18 -10 9 -11 8 -5 -6z"/>
<path d="M8860 7106 c19 -21 44 -42 55 -48 11 -6 18 -9 15 -6 -3 2 -27 24 -55
48 -48 42 -48 42 -15 6z"/>
<path d="M7525 7033 c-22 -8 -71 -19 -110 -23 l-70 -9 75 4 c65 3 150 26 150
40 0 6 4 7 -45 -12z"/>
<path d="M4640 7026 c0 -2 7 -7 16 -10 8 -3 12 -2 9 4 -6 10 -25 14 -25 6z"/>
<path d="M8990 7020 c8 -5 22 -9 30 -9 10 0 8 3 -5 9 -27 12 -43 12 -25 0z"/>
<path d="M7298 7013 c7 -3 16 -2 19 1 4 3 -2 6 -13 5 -11 0 -14 -3 -6 -6z"/>
<path d="M9093 7003 c15 -2 37 -2 50 0 12 2 0 4 -28 4 -27 0 -38 -2 -22 -4z"/>
<path d="M4790 6485 c3 -95 7 -176 10 -179 8 -7 -1 338 -8 346 -4 4 -5 -71 -2
-167z"/>
<path d="M3194 6598 c4 -36 34 -93 44 -84 3 3 -1 12 -8 20 -6 9 -18 35 -26 58
l-14 43 4 -37z"/>
<path d="M7414 6530 c0 -58 1 -81 3 -52 2 28 2 76 0 105 -2 28 -3 5 -3 -53z"/>
<path d="M9151 6587 c-10 -33 -27 -59 -57 -87 -24 -22 -40 -40 -35 -40 5 0 27
18 49 41 40 39 68 97 60 121 -3 7 -10 -9 -17 -35z"/>
<path d="M2143 6553 c9 -2 23 -2 30 0 6 3 -1 5 -18 5 -16 0 -22 -2 -12 -5z"/>
<path d="M2223 6553 c9 -2 25 -2 35 0 9 3 1 5 -18 5 -19 0 -27 -2 -17 -5z"/>
<path d="M10588 6553 c12 -2 30 -2 40 0 9 3 -1 5 -23 4 -22 0 -30 -2 -17 -4z"/>
<path d="M2351 6526 c2 -2 15 -9 29 -15 24 -11 24 -11 6 3 -16 13 -49 24 -35
12z"/>
<path d="M10425 6510 c-3 -6 1 -7 9 -4 18 7 21 14 7 14 -6 0 -13 -4 -16 -10z"/>
<path d="M2453 6460 c26 -23 59 -62 73 -86 30 -50 43 -59 18 -13 -20 39 -91
117 -118 131 -12 5 0 -9 27 -32z"/>
<path d="M10860 6450 c31 -30 67 -78 80 -107 29 -63 40 -63 12 -1 -22 50 -70
108 -116 140 -18 13 -7 -1 24 -32z"/>
<path d="M9015 6480 c-3 -6 1 -7 9 -4 18 7 21 14 7 14 -6 0 -13 -4 -16 -10z"/>
<path d="M10345 6448 l-40 -43 43 40 c39 36 47 45 39 45 -2 0 -21 -19 -42 -42z"/>
<path d="M1914 6418 l-19 -23 23 19 c21 18 27 26 19 26 -2 0 -12 -10 -23 -22z"/>
<path d="M7382 6400 c0 -14 2 -19 5 -12 2 6 2 18 0 25 -3 6 -5 1 -5 -13z"/>
<path d="M8915 6390 c-3 -6 1 -7 9 -4 18 7 21 14 7 14 -6 0 -13 -4 -16 -10z"/>
<path d="M8835 6380 c-3 -6 1 -7 9 -4 18 7 21 14 7 14 -6 0 -13 -4 -16 -10z"/>
<path d="M7401 6344 c0 -11 3 -14 6 -6 3 7 2 16 -1 19 -3 4 -6 -2 -5 -13z"/>
<path d="M3520 6347 c0 -3 30 -23 68 -44 84 -50 112 -65 112 -59 0 3 -58 38
-172 103 -5 2 -8 2 -8 0z"/>
<path d="M8744 6324 c-18 -14 -18 -15 4 -4 12 6 22 13 22 15 0 8 -5 6 -26 -11z"/>
<path d="M10528 6275 l-35 -24 12 -70 c13 -77 21 -91 72 -122 34 -21 35 -23
29 -70 -6 -43 -5 -49 12 -49 28 0 111 57 124 85 10 22 8 29 -11 48 -19 21 -57
34 -46 17 7 -11 -61 -44 -77 -37 -18 6 -30 69 -15 78 11 8 3 75 -16 131 l-13
37 -36 -24z"/>
<path d="M10642 6288 c-30 -30 7 -74 53 -62 32 8 32 19 -2 49 -32 28 -35 29
-51 13z"/>
<path d="M10241 6274 c0 -11 3 -14 6 -6 3 7 2 16 -1 19 -3 4 -6 -2 -5 -13z"/>
<path d="M7326 6245 c-10 -14 -115 -124 -234 -244 -119 -120 -228 -231 -241
-247 -14 -16 88 84 226 221 138 138 256 260 262 273 16 30 7 28 -13 -3z"/>
<path d="M7352 6234 c-12 -19 -20 -34 -18 -34 7 0 49 61 44 65 -2 2 -13 -12
-26 -31z"/>
<path d="M2230 6250 c0 -5 7 -10 16 -10 8 0 12 5 9 10 -3 6 -10 10 -16 10 -5
0 -9 -4 -9 -10z"/>
<path d="M1833 6180 c0 -41 2 -58 4 -37 2 20 2 54 0 75 -2 20 -4 3 -4 -38z"/>
<path d="M10232 6220 c0 -19 2 -27 5 -17 2 9 2 25 0 35 -3 9 -5 1 -5 -18z"/>
<path d="M10600 6239 c0 -5 5 -7 10 -4 6 3 10 8 10 11 0 2 -4 4 -10 4 -5 0
-10 -5 -10 -11z"/>
<path d="M3710 6236 c0 -3 9 -10 20 -16 11 -6 20 -8 20 -6 0 3 -9 10 -20 16
-11 6 -20 8 -20 6z"/>
<path d="M3800 6182 c28 -23 180 -106 180 -98 0 4 -57 37 -160 94 -37 20 -40
20 -20 4z"/>
<path d="M10982 6170 c0 -19 2 -27 5 -17 2 9 2 25 0 35 -3 9 -5 1 -5 -18z"/>
<path d="M2076 6171 c-19 -7 -15 -11 192 -136 34 -21 64 -36 67 -34 2 3 -7 28
-20 57 -25 55 -45 64 -75 37 -15 -14 -21 -12 -56 14 -21 16 -49 39 -62 50 -12
12 -24 21 -25 20 -1 0 -10 -4 -21 -8z"/>
<path d="M9563 6173 c9 -2 25 -2 35 0 9 3 1 5 -18 5 -19 0 -27 -2 -17 -5z"/>
<path d="M10233 6145 c0 -22 2 -30 4 -17 2 12 2 30 0 40 -3 9 -5 -1 -4 -23z"/>
<path d="M10095 6160 c-3 -5 -1 -10 4 -10 6 0 11 5 11 10 0 6 -2 10 -4 10 -3
0 -8 -4 -11 -10z"/>
<path d="M2688 6148 c5 -5 16 -8 23 -6 8 3 3 7 -10 11 -17 4 -21 3 -13 -5z"/>
<path d="M2581 6134 c0 -11 3 -14 6 -6 3 7 2 16 -1 19 -3 4 -6 -2 -5 -13z"/>
<path d="M8448 6124 c-38 -20 -36 -28 2 -9 17 9 30 18 30 20 0 7 -1 6 -32 -11z"/>
<path d="M9425 6130 c-3 -6 1 -7 9 -4 18 7 21 14 7 14 -6 0 -13 -4 -16 -10z"/>
<path d="M10600 6095 c0 -14 2 -25 4 -25 2 0 6 11 8 25 3 14 1 25 -3 25 -5 0
-9 -11 -9 -25z"/>
<path d="M8324 6084 c-18 -14 -18 -15 4 -4 12 6 22 13 22 15 0 8 -5 6 -26 -11z"/>
<path d="M8390 6090 c-9 -6 -10 -10 -3 -10 6 0 15 5 18 10 8 12 4 12 -15 0z"/>
<path d="M10241 6084 c0 -11 3 -14 6 -6 3 7 2 16 -1 19 -3 4 -6 -2 -5 -13z"/>
<path d="M9324 6074 c-18 -14 -18 -15 4 -4 12 6 22 13 22 15 0 8 -5 6 -26 -11z"/>
<path d="M3990 6076 c0 -2 7 -7 16 -10 8 -3 12 -2 9 4 -6 10 -25 14 -25 6z"/>
<path d="M4030 6057 c0 -3 42 -28 93 -57 114 -66 107 -62 107 -57 0 3 -42 28
-92 57 -115 66 -108 62 -108 57z"/>
<path d="M5035 5990 c38 -38 72 -70 74 -70 3 0 -26 32 -64 70 -38 39 -72 70
-74 70 -3 0 26 -31 64 -70z"/>
<path d="M8308 6044 c-38 -20 -36 -28 2 -9 17 9 30 18 30 20 0 7 -1 6 -32 -11z"/>
<path d="M9214 6014 c-32 -20 -84 -51 -114 -69 -144 -83 -500 -301 -593 -363
-40 -27 -100 -65 -134 -86 -35 -21 -63 -40 -63 -42 0 -7 21 5 393 233 544 333
592 363 574 363 -2 0 -30 -16 -63 -36z"/>
<path d="M8218 6024 c-38 -20 -36 -28 2 -9 17 9 30 18 30 20 0 7 -1 6 -32 -11z"/>
<path d="M2520 5975 c-11 -19 -44 -55 -72 -80 -27 -25 -47 -45 -43 -45 13 0
117 105 131 132 20 39 10 35 -16 -7z"/>
<path d="M10929 5988 c-7 -12 -35 -47 -63 -77 -41 -44 -44 -50 -18 -32 40 28
117 131 98 131 -3 0 -11 -10 -17 -22z"/>
<path d="M8208 5984 c-38 -20 -36 -28 2 -9 17 9 30 18 30 20 0 7 -1 6 -32 -11z"/>
<path d="M1890 5970 c29 -55 145 -143 205 -155 17 -3 5 4 -25 16 -38 16 -75
42 -122 89 -37 37 -63 60 -58 50z"/>
<path d="M10280 5986 c0 -4 18 -30 40 -56 42 -50 116 -103 160 -114 14 -4 2 5
-26 19 -53 26 -115 79 -152 130 -12 17 -22 26 -22 21z"/>
<path d="M3310 5976 c0 -3 9 -10 20 -16 11 -6 20 -8 20 -6 0 3 -9 10 -20 16
-11 6 -20 8 -20 6z"/>
<path d="M8123 5934 c-48 -28 -59 -43 -15 -20 30 16 70 45 62 46 -3 0 -24 -12
-47 -26z"/>
<path d="M3365 5943 c6 -6 28 -20 50 -32 22 -13 31 -15 20 -6 -22 18 -86 53
-70 38z"/>
<path d="M4240 5936 c0 -2 26 -19 58 -36 31 -18 76 -44 100 -57 23 -14 42 -23
42 -20 0 5 -113 73 -167 101 -18 9 -33 15 -33 12z"/>
<path d="M7984 5884 c-18 -14 -18 -15 4 -4 12 6 22 13 22 15 0 8 -5 6 -26 -11z"/>
<path d="M8040 5885 c-14 -8 -20 -14 -14 -15 5 0 19 7 30 15 24 18 16 19 -16
0z"/>
<path d="M5180 5886 c0 -2 8 -10 18 -17 15 -13 16 -12 3 4 -13 16 -21 21 -21
13z"/>
<path d="M5190 5847 c0 -1 35 -36 78 -77 l77 -75 -75 78 c-69 71 -80 82 -80
74z"/>
<path d="M7887 5831 c-40 -26 -47 -36 -12 -18 42 23 62 37 50 36 -5 0 -22 -8
-38 -18z"/>
<path d="M4450 5816 c0 -3 14 -12 30 -21 17 -9 30 -13 30 -11 0 3 -13 12 -30
21 -16 9 -30 13 -30 11z"/>
<path d="M4525 5773 c6 -6 37 -26 70 -44 33 -18 56 -28 50 -22 -5 5 -37 25
-70 43 -33 18 -55 28 -50 23z"/>
<path d="M3695 5745 c11 -9 34 -23 50 -31 28 -14 29 -14 10 1 -11 9 -33 23
-50 31 -28 14 -29 14 -10 -1z"/>
<path d="M7724 5734 c-18 -14 -18 -15 4 -4 12 6 22 13 22 15 0 8 -5 6 -26 -11z"/>
<path d="M4674 5686 c11 -9 24 -16 30 -16 12 0 7 5 -24 19 -24 11 -24 11 -6
-3z"/>
<path d="M7668 5674 c-38 -20 -36 -28 2 -9 17 9 30 18 30 20 0 7 -1 6 -32 -11z"/>
<path d="M7604 5664 c-18 -14 -18 -15 4 -4 12 6 22 13 22 15 0 8 -5 6 -26 -11z"/>
<path d="M7604 5634 c-18 -14 -18 -15 4 -4 12 6 22 13 22 15 0 8 -5 6 -26 -11z"/>
<path d="M4840 5598 c8 -8 38 -27 65 -42 55 -29 26 -5 -39 33 -23 13 -34 17
-26 9z"/>
<path d="M7525 5590 c-16 -11 -25 -20 -20 -20 10 0 64 39 55 40 -3 0 -18 -9
-35 -20z"/>
<path d="M3964 5586 c11 -9 24 -16 30 -16 12 0 7 5 -24 19 -24 11 -24 11 -6
-3z"/>
<path d="M4020 5550 c35 -24 54 -31 30 -11 -14 11 -29 21 -35 21 -5 0 -3 -5 5
-10z"/>
<path d="M6766 5530 l-18 -35 22 21 c12 12 20 28 18 35 -3 9 -12 0 -22 -21z"/>
<path d="M7454 5544 c-18 -14 -18 -15 4 -4 12 6 22 13 22 15 0 8 -5 6 -26 -11z"/>
<path d="M4087 5509 c7 -7 15 -10 18 -7 3 3 -2 9 -12 12 -14 6 -15 5 -6 -5z"/>
<path d="M8327 5436 c-48 -29 -61 -43 -22 -23 31 16 74 46 65 46 -3 0 -22 -10
-43 -23z"/>
<path d="M8244 5384 c-18 -14 -18 -15 4 -4 12 6 22 13 22 15 0 8 -5 6 -26 -11z"/>
<path d="M8170 5369 c-17 -13 -18 -17 -5 -10 33 17 51 31 40 31 -5 0 -21 -10
-35 -21z"/>
<path d="M4350 5356 c0 -3 9 -10 20 -16 11 -6 20 -8 20 -6 0 3 -9 10 -20 16
-11 6 -20 8 -20 6z"/>
<path d="M5110 5353 c0 -13 48 -69 53 -63 3 3 -8 20 -24 38 -16 18 -29 29 -29
25z"/>
<path d="M7179 5303 c-13 -16 -12 -17 4 -4 9 7 17 15 17 17 0 8 -8 3 -21 -13z"/>
<path d="M4430 5306 c0 -3 9 -10 20 -16 11 -6 20 -8 20 -6 0 3 -9 10 -20 16
-11 6 -20 8 -20 6z"/>
<path d="M7998 5264 c-38 -20 -36 -28 2 -9 17 9 30 18 30 20 0 7 -1 6 -32 -11z"/>
<path d="M2163 5233 c20 -2 54 -2 75 0 20 2 3 4 -38 4 -41 0 -58 -2 -37 -4z"/>
<path d="M7928 5224 c-38 -20 -36 -28 2 -9 17 9 30 18 30 20 0 7 -1 6 -32 -11z"/>
<path d="M10563 5233 c20 -2 54 -2 75 0 20 2 3 4 -38 4 -41 0 -58 -2 -37 -4z"/>
<path d="M2098 5223 c7 -3 16 -2 19 1 4 3 -2 6 -13 5 -11 0 -14 -3 -6 -6z"/>
<path d="M5838 5209 c-22 -12 -23 -57 -2 -87 29 -41 86 -21 100 35 12 46 -52
79 -98 52z"/>
<path d="M6242 5208 c-10 -10 -36 -17 -79 -20 -7 -1 -10 -6 -6 -11 3 -5 -11
-7 -36 -4 -23 2 -44 0 -47 -5 -9 -13 -74 -6 -74 9 0 17 -26 17 -37 1 -4 -7
-12 -26 -18 -43 -13 -38 -48 -56 -105 -53 -40 3 -45 6 -45 27 0 13 -7 26 -15
28 -13 4 -13 3 0 -6 12 -8 12 -12 -3 -29 -9 -10 -17 -27 -18 -38 0 -18 -1 -18
-9 1 -5 11 -9 14 -9 8 -1 -7 -7 -13 -15 -13 -18 0 -28 -40 -15 -56 7 -9 5 -16
-8 -24 -14 -9 -11 -10 17 -4 38 8 37 8 90 0 32 -5 38 -2 65 36 50 70 104 104
185 118 144 24 266 -20 327 -118 12 -19 27 -39 35 -43 15 -10 208 -12 232 -3
10 4 16 18 16 35 0 20 -4 27 -14 23 -9 -4 -13 3 -12 23 1 19 -4 28 -14 28 -8
1 -14 6 -12 13 1 7 -3 12 -10 12 -6 0 -9 3 -5 6 7 7 -17 34 -29 34 -4 0 -15 7
-25 16 -16 14 -21 14 -56 -5 -21 -11 -31 -21 -23 -21 9 -1 5 -5 -8 -11 -15 -5
-21 -13 -16 -21 4 -7 4 -10 0 -6 -5 4 -19 2 -33 -3 -39 -14 -88 6 -113 46 -20
32 -20 35 -4 60 17 26 11 32 -16 15 -9 -5 -17 -5 -20 0 -4 6 -11 5 -18 -2z"/>
<path d="M6332 5204 c-28 -19 -28 -44 -1 -78 25 -31 61 -34 89 -6 39 39 12
100 -45 100 -11 0 -31 -7 -43 -16z"/>
<path d="M2390 5184 c14 -10 49 -40 79 -68 41 -38 48 -42 27 -16 -30 37 -105
99 -121 100 -5 0 2 -7 15 -16z"/>
<path d="M4620 5196 c0 -3 9 -10 20 -16 11 -6 20 -8 20 -6 0 3 -9 10 -20 16
-11 6 -20 8 -20 6z"/>
<path d="M10383 5167 c-39 -30 -103 -102 -103 -116 0 -3 19 16 42 43 23 27 60
62 81 77 22 16 36 29 31 29 -5 0 -28 -15 -51 -33z"/>
<path d="M10806 5172 c47 -35 93 -78 117 -112 18 -25 18 -25 1 5 -24 42 -53
73 -101 106 -54 37 -68 38 -17 1z"/>
<path d="M6038 5173 c6 -2 18 -2 25 0 6 3 1 5 -13 5 -14 0 -19 -2 -12 -5z"/>
<path d="M1939 5133 c-13 -16 -12 -17 4 -4 16 13 21 21 13 21 -2 0 -10 -8 -17
-17z"/>
<path d="M4783 5100 c62 -39 128 -72 133 -67 6 6 -152 97 -168 97 -6 0 9 -13
35 -30z"/>
<path d="M6073 5119 c-74 -9 -109 -26 -159 -78 -63 -63 -82 -89 -74 -98 4 -4
4 -37 -1 -73 -5 -35 -13 -137 -18 -227 -8 -154 -10 -164 -34 -190 -191 -211
-239 -290 -253 -420 -4 -32 -10 -64 -14 -72 -16 -30 112 -154 255 -249 88 -58
169 -97 260 -123 71 -21 100 -24 250 -24 158 1 176 2 250 28 116 39 199 91
290 182 77 76 141 175 159 245 4 14 -10 -9 -30 -50 -59 -123 -137 -211 -162
-185 -4 4 -9 75 -12 158 -5 139 -8 157 -33 212 -34 73 -85 142 -171 229 -37
38 -64 72 -60 78 4 6 3 8 -3 5 -13 -8 -23 14 -29 63 -3 19 -8 37 -12 40 -9 6
-9 8 -17 145 -9 163 -51 284 -117 340 -68 58 -152 78 -265 64z m167 -245 c33
-29 60 -82 60 -121 0 -13 -11 -35 -25 -48 -31 -31 -52 -33 -31 -3 33 47 5 128
-44 128 -27 0 -53 -43 -48 -80 5 -30 -12 -40 -38 -22 -18 11 8 117 36 147 30
32 51 32 90 -1z m-266 -9 c18 -18 36 -79 35 -115 0 -20 -3 -17 -12 14 -13 43
-36 62 -62 53 -14 -6 -16 -17 -13 -62 1 -30 1 -55 -2 -55 -33 0 -41 103 -13
151 19 32 43 37 67 14z m-14 -65 c0 -5 -5 -10 -11 -10 -5 0 -7 5 -4 10 3 6 8
10 11 10 2 0 4 -4 4 -10z m150 -90 c10 0 40 -15 66 -33 27 -19 63 -38 79 -44
53 -17 45 -45 -29 -92 -36 -23 -89 -50 -117 -61 l-52 -21 -42 28 c-74 49 -126
102 -128 131 -3 43 27 35 33 -10 7 -51 74 -98 141 -98 29 0 145 43 163 61 21
19 -3 17 -67 -6 -81 -30 -141 -32 -183 -6 -31 19 -50 65 -38 95 12 32 104 71
142 60 8 -2 22 -4 32 -4z m232 -382 c83 -164 108 -249 108 -368 0 -57 -2 -62
-40 -96 -22 -20 -43 -47 -46 -60 -3 -13 -10 -24 -15 -24 -4 0 -11 -16 -15 -35
-3 -19 -12 -39 -20 -46 -8 -6 -12 -15 -9 -19 12 -20 -30 -34 -100 -33 -107 2
-202 23 -275 62 -8 4 -43 23 -78 41 -36 19 -79 51 -99 76 -20 24 -41 40 -46
37 -17 -10 0 136 23 203 21 61 162 358 181 380 8 9 24 5 66 -17 81 -43 137
-37 233 23 25 15 47 28 50 28 3 0 40 -69 82 -152z m120 -517 c-3 -30 1 -44 18
-61 18 -18 31 -21 81 -18 50 2 57 1 42 -9 -9 -7 -44 -13 -78 -13 -71 0 -94
-18 -102 -81 -10 -68 -23 -42 -23 45 0 104 22 176 54 176 7 0 10 -14 8 -39z"/>
<path d="M7640 5064 c-47 -24 -71 -41 -55 -38 38 9 145 64 145 76 0 10 8 14
-90 -38z"/>
<path d="M10465 5071 l-70 -6 -3 -184 c-2 -120 1 -188 8 -196 6 -8 41 -23 78
-35 37 -12 73 -24 80 -26 10 -5 12 41 10 222 -3 195 -5 229 -18 230 -8 0 -46
-2 -85 -5z"/>
<path d="M10630 4853 l0 -228 61 61 61 61 -36 71 c-20 39 -36 76 -36 81 0 5
29 -7 65 -26 67 -35 84 -50 39 -33 -36 14 -36 14 -29 -21 16 -73 15 -78 -48
-140 -33 -32 -56 -59 -51 -58 5 0 45 19 89 42 l80 42 3 172 c3 201 11 187
-115 197 l-83 7 0 -228z m187 34 c-2 -23 -3 -1 -3 48 0 50 1 68 3 42 2 -26 2
-67 0 -90z"/>
<path d="M10951 5005 c1 -19 18 -51 18 -35 0 8 -4 22 -9 30 -5 8 -9 11 -9 5z"/>
<path d="M2561 4964 c0 -11 3 -14 6 -6 3 7 2 16 -1 19 -3 4 -6 -2 -5 -13z"/>
<path d="M1832 4940 c0 -14 2 -19 5 -12 2 6 2 18 0 25 -3 6 -5 1 -5 -13z"/>
<path d="M2027 4953 c-4 -3 -7 -51 -7 -105 l0 -99 128 2 c70 1 148 4 175 7
l47 4 0 92 0 93 -122 6 c-154 9 -213 9 -221 0z"/>
<path d="M10242 4940 c0 -14 2 -19 5 -12 2 6 2 18 0 25 -3 6 -5 1 -5 -13z"/>
<path d="M10972 4930 c0 -14 2 -19 5 -12 2 6 2 18 0 25 -3 6 -5 1 -5 -13z"/>
<path d="M2571 4914 c0 -11 3 -14 6 -6 3 7 2 16 -1 19 -3 4 -6 -2 -5 -13z"/>
<path d="M5304 4866 c-62 -77 -102 -146 -134 -233 -162 -445 89 -948 600
-1203 106 -53 189 -85 282 -107 102 -25 325 -25 428 0 548 132 810 662 571
1151 -28 56 -62 115 -76 131 l-27 30 22 -44 c43 -87 69 -168 75 -242 4 -41 8
-86 10 -101 4 -41 -21 -166 -45 -233 -85 -228 -259 -384 -515 -461 -77 -24
-341 -26 -425 -5 -202 52 -405 183 -563 366 -118 136 -175 238 -223 400 -23
77 -27 110 -28 230 -1 153 8 197 63 310 17 33 29 60 28 61 -1 1 -21 -21 -43
-50z"/>
<path d="M10231 4869 c1 -24 5 -57 9 -74 5 -18 6 -2 3 40 -6 79 -14 101 -12
34z"/>
<path d="M1822 4860 c0 -14 2 -19 5 -12 2 6 2 18 0 25 -3 6 -5 1 -5 -13z"/>
<path d="M8538 4853 c7 -3 16 -2 19 1 4 3 -2 6 -13 5 -11 0 -14 -3 -6 -6z"/>
<path d="M4188 4833 c34 -2 90 -2 125 0 34 2 6 3 -63 3 -69 0 -97 -1 -62 -3z"/>
<path d="M4423 4833 c15 -2 39 -2 55 0 15 2 2 4 -28 4 -30 0 -43 -2 -27 -4z"/>
<path d="M7903 4833 c37 -2 96 -2 130 0 34 2 4 3 -68 3 -71 0 -99 -1 -62 -3z"/>
<path d="M8128 4833 c17 -2 47 -2 65 0 17 2 3 4 -33 4 -36 0 -50 -2 -32 -4z"/>
<path d="M1831 4794 c-1 -21 19 -88 24 -82 2 2 -3 26 -10 53 -8 28 -14 41 -14
29z"/>
<path d="M2572 4780 c0 -14 2 -19 5 -12 2 6 2 18 0 25 -3 6 -5 1 -5 -13z"/>
<path d="M4613 4782 c16 -17 57 -37 57 -27 0 2 -17 13 -37 25 -35 21 -37 21
-20 2z"/>
<path d="M10942 4705 c-32 -71 -99 -140 -175 -177 -36 -17 -50 -27 -32 -23 45
10 121 62 159 109 37 45 79 123 74 136 -2 5 -13 -16 -26 -45z"/>
<path d="M2561 4743 c-1 -6 -4 -20 -7 -30 -5 -17 -5 -17 6 0 6 10 9 23 6 30
-3 9 -5 9 -5 0z"/>
<path d="M5283 4675 c0 -22 2 -30 4 -17 2 12 2 30 0 40 -3 9 -5 -1 -4 -23z"/>
<path d="M2526 4662 c-22 -43 -111 -120 -169 -147 -28 -14 -45 -25 -37 -25 28
1 95 37 140 77 39 35 101 123 86 123 -3 0 -12 -13 -20 -28z"/>
<path d="M1897 4635 c35 -51 137 -134 150 -122 2 3 -8 12 -24 20 -16 9 -55 42
-88 74 -32 32 -49 45 -38 28z"/>
<path d="M5275 4528 c3 -97 39 -278 52 -265 2 3 -3 29 -11 58 -8 30 -20 97
-26 149 -5 52 -12 111 -14 130 -3 19 -3 -13 -1 -72z"/>
<path d="M7015 4596 c10 -14 19 -26 22 -26 7 0 -17 39 -28 46 -6 3 -3 -5 6
-20z"/>
<path d="M10410 4545 c0 -7 61 -37 66 -33 2 3 -12 12 -31 21 -19 9 -35 15 -35
12z"/>
<path d="M5112 4500 c0 -14 2 -19 5 -12 2 6 2 18 0 25 -3 6 -5 1 -5 -13z"/>
<path d="M10540 4490 c25 -8 117 -13 109 -6 -2 2 -33 6 -69 9 -39 3 -55 2 -40
-3z"/>
<path d="M2128 4483 c7 -3 16 -2 19 1 4 3 -2 6 -13 5 -11 0 -14 -3 -6 -6z"/>
<path d="M2188 4473 c12 -2 30 -2 40 0 9 3 -1 5 -23 4 -22 0 -30 -2 -17 -4z"/>
<path d="M7080 4471 c0 -6 4 -13 10 -16 6 -3 7 1 4 9 -7 18 -14 21 -14 7z"/>
<path d="M5102 4420 c0 -19 2 -27 5 -17 2 9 2 25 0 35 -3 9 -5 1 -5 -18z"/>
<path d="M7012 4365 c0 -16 2 -22 5 -12 2 9 2 23 0 30 -3 6 -5 -1 -5 -18z"/>
<path d="M7121 4374 c0 -11 3 -14 6 -6 3 7 2 16 -1 19 -3 4 -6 -2 -5 -13z"/>
<path d="M5103 4325 c0 -27 2 -38 4 -22 2 15 2 37 0 50 -2 12 -4 0 -4 -28z"/>
<path d="M7131 4334 c0 -11 3 -14 6 -6 3 7 2 16 -1 19 -3 4 -6 -2 -5 -13z"/>
<path d="M7016 4233 c-3 -54 -9 -111 -11 -128 -5 -29 -5 -29 6 -5 11 25 26
230 17 230 -3 0 -8 -44 -12 -97z"/>
<path d="M7142 4290 c0 -14 2 -19 5 -12 2 6 2 18 0 25 -3 6 -5 1 -5 -13z"/>
<path d="M5112 4235 c0 -16 2 -22 5 -12 2 9 2 23 0 30 -3 6 -5 -1 -5 -18z"/>
<path d="M7152 4235 c0 -16 2 -22 5 -12 2 9 2 23 0 30 -3 6 -5 -1 -5 -18z"/>
<path d="M5121 4174 c0 -11 3 -14 6 -6 3 7 2 16 -1 19 -3 4 -6 -2 -5 -13z"/>
<path d="M3383 4072 c-10 -6 513 -6 717 1 47 2 -93 4 -310 5 -217 1 -400 -2
-407 -6z"/>
<path d="M4213 4073 c9 -2 23 -2 30 0 6 3 -1 5 -18 5 -16 0 -22 -2 -12 -5z"/>
<path d="M4415 4070 c-4 -6 15 -10 49 -10 30 0 58 5 61 10 4 6 -15 10 -49 10
-30 0 -58 -4 -61 -10z"/>
<path d="M7701 4069 c20 -4 65 -4 100 0 63 8 62 8 -36 9 -76 0 -91 -2 -64 -9z"/>
<path d="M8100 4073 c142 -6 810 -8 788 -1 -13 3 -210 6 -438 5 -228 0 -386
-2 -350 -4z"/>
<path d="M5150 4065 c0 -5 5 -17 10 -25 5 -8 10 -10 10 -5 0 6 -5 17 -10 25
-5 8 -10 11 -10 5z"/>
<path d="M3878 4053 c23 -2 59 -2 80 0 20 2 1 4 -43 4 -44 0 -61 -2 -37 -4z"/>
<path d="M4092 4053 c37 -2 100 -2 140 0 40 1 10 3 -67 3 -77 0 -110 -1 -73
-3z"/>
<path d="M8950 4039 c19 -12 49 -33 65 -48 l30 -26 -30 33 c-16 19 -42 40 -57
48 -42 22 -47 17 -8 -7z"/>
<path d="M3393 4043 c9 -2 23 -2 30 0 6 3 -1 5 -18 5 -16 0 -22 -2 -12 -5z"/>
<path d="M3180 3929 l-95 -91 98 88 c87 79 103 94 94 94 -1 0 -45 -41 -97 -91z"/>
<path d="M7151 3994 c0 -11 3 -14 6 -6 3 7 2 16 -1 19 -3 4 -6 -2 -5 -13z"/>
<path d="M3225 3938 l-40 -43 43 40 c39 36 47 45 39 45 -2 0 -21 -19 -42 -42z"/>
<path d="M9071 3904 c39 -42 207 -207 217 -214 4 -2 -49 53 -118 123 -69 70
-127 127 -129 127 -3 0 11 -16 30 -36z"/>
<path d="M2238 3913 c6 -2 18 -2 25 0 6 3 1 5 -13 5 -14 0 -19 -2 -12 -5z"/>
<path d="M2331 3896 c2 -2 15 -9 29 -15 24 -11 24 -11 6 3 -16 13 -49 24 -35
12z"/>
<path d="M2009 3859 l-24 -20 28 17 c15 9 27 18 27 20 0 8 -8 4 -31 -17z"/>
<path d="M7116 3855 c-9 -26 -7 -32 5 -12 6 10 9 21 6 23 -2 3 -7 -2 -11 -11z"/>
<path d="M10844 3839 c17 -15 41 -40 54 -55 13 -16 19 -20 14 -9 -10 20 -54
63 -82 81 -9 5 -2 -3 14 -17z"/>
<path d="M2410 3858 c0 -2 21 -21 48 -43 26 -21 38 -28 27 -16 -19 23 -75 66
-75 59z"/>
<path d="M1944 3808 l-29 -33 33 29 c30 28 37 36 29 36 -2 0 -16 -15 -33 -32z"/>
<path d="M3010 3773 l-55 -57 60 54 c33 29 62 55 64 57 2 2 0 3 -5 3 -5 0 -34
-26 -64 -57z"/>
<path d="M3045 3768 l-40 -43 43 40 c39 36 47 45 39 45 -2 0 -21 -19 -42 -42z"/>
<path d="M1899 3753 c-13 -16 -12 -17 4 -4 9 7 17 15 17 17 0 8 -8 3 -21 -13z"/>
<path d="M2536 3707 c3 -10 9 -15 12 -12 3 3 0 11 -7 18 -10 9 -11 8 -5 -6z"/>
<path d="M2924 3688 l-19 -23 23 19 c12 11 22 21 22 23 0 8 -8 2 -26 -19z"/>
<path d="M2925 3658 l-50 -53 53 50 c28 27 52 51 52 52 0 8 -9 -1 -55 -49z"/>
<path d="M1856 3675 c-3 -9 -6 -22 -5 -28 0 -7 5 -1 10 12 5 13 8 26 5 28 -2
2 -6 -3 -10 -12z"/>
<path d="M9325 3662 c17 -19 39 -38 50 -44 11 -6 16 -7 10 -2 -5 5 -28 25 -50
44 l-40 35 30 -33z"/>
<path d="M10972 3620 c0 -14 2 -19 5 -12 2 6 2 18 0 25 -3 6 -5 1 -5 -13z"/>
<path d="M1841 3614 c0 -11 3 -14 6 -6 3 7 2 16 -1 19 -3 4 -6 -2 -5 -13z"/>
<path d="M10680 3610 c0 -5 5 -10 11 -10 5 0 7 5 4 10 -3 6 -8 10 -11 10 -2 0
-4 -4 -4 -10z"/>
<path d="M10233 3545 c0 -38 2 -53 4 -32 2 20 2 52 0 70 -2 17 -4 1 -4 -38z"/>
<path d="M10511 3586 c-8 -14 -18 -24 -23 -23 -21 4 -48 -67 -47 -123 1 -90
15 -106 24 -27 4 37 11 67 15 67 5 0 6 8 3 19 -3 12 5 26 23 40 24 19 36 21
79 15 27 -3 57 -10 65 -14 34 -17 100 -18 116 -3 19 19 14 36 -12 39 -92 11
-112 14 -134 22 -13 5 -39 6 -57 2 -19 -5 -33 -4 -35 2 -2 5 -10 -2 -17 -16z"/>
<path d="M2825 3579 c-16 -10 -25 -19 -19 -19 7 0 22 9 35 20 30 24 23 24 -16
-1z"/>
<path d="M1832 3540 c0 -19 2 -27 5 -17 2 9 2 25 0 35 -3 9 -5 1 -5 -18z"/>
<path d="M2718 3563 c7 -3 16 -2 19 1 4 3 -2 6 -13 5 -11 0 -14 -3 -6 -6z"/>
<path d="M7660 3531 c11 -22 24 -42 29 -46 6 -3 -2 15 -15 40 -31 55 -42 60
-14 6z"/>
<path d="M9547 3563 c18 -2 50 -2 70 0 21 2 7 4 -32 4 -38 0 -55 -2 -38 -4z"/>
<path d="M9868 3563 c23 -2 59 -2 80 0 20 2 1 4 -43 4 -44 0 -61 -2 -37 -4z"/>
<path d="M10058 3563 c6 -2 18 -2 25 0 6 3 1 5 -13 5 -14 0 -19 -2 -12 -5z"/>
<path d="M10096 3545 c-3 -8 -1 -15 4 -15 13 0 22 18 11 24 -5 3 -11 -1 -15
-9z"/>
<path d="M2748 3543 c7 -3 16 -2 19 1 4 3 -2 6 -13 5 -11 0 -14 -3 -6 -6z"/>
<path d="M2698 3533 c6 -2 18 -2 25 0 6 3 1 5 -13 5 -14 0 -19 -2 -12 -5z"/>
<path d="M4583 3483 c-29 -29 -49 -53 -44 -53 12 0 101 88 101 100 0 13 4 16
-57 -47z"/>
<path d="M10048 3533 c6 -2 18 -2 25 0 6 3 1 5 -13 5 -14 0 -19 -2 -12 -5z"/>
<path d="M10971 3484 c0 -11 3 -14 6 -6 3 7 2 16 -1 19 -3 4 -6 -2 -5 -13z"/>
<path d="M2571 3474 c0 -11 3 -14 6 -6 3 7 2 16 -1 19 -3 4 -6 -2 -5 -13z"/>
<path d="M5637 3479 c7 -7 15 -10 18 -7 3 3 -2 9 -12 12 -14 6 -15 5 -6 -5z"/>
<path d="M1841 3464 c0 -11 3 -14 6 -6 3 7 2 16 -1 19 -3 4 -6 -2 -5 -13z"/>
<path d="M10961 3444 c0 -11 3 -14 6 -6 3 7 2 16 -1 19 -3 4 -6 -2 -5 -13z"/>
<path d="M1851 3430 c0 -8 4 -22 9 -30 12 -18 12 -2 0 25 -6 13 -9 15 -9 5z"/>
<path d="M10570 3431 c-20 -5 -22 -8 -9 -13 9 -4 21 -2 27 4 7 7 27 5 63 -5
67 -20 76 -15 13 7 -51 17 -56 18 -94 7z"/>
<path d="M4500 3420 c-13 -8 -12 -10 3 -10 9 0 17 5 17 10 0 12 -1 12 -20 0z"/>
<path d="M10939 3389 c-7 -18 -45 -65 -85 -106 -73 -74 -73 -84 1 -20 39 34
113 143 103 153 -3 2 -11 -10 -19 -27z"/>
<path d="M10728 3393 c6 -2 18 -2 25 0 6 3 1 5 -13 5 -14 0 -19 -2 -12 -5z"/>
<path d="M1870 3374 c0 -18 40 -74 82 -115 24 -23 71 -55 106 -72 59 -27 69
-29 160 -25 86 3 104 7 158 37 34 18 77 49 95 68 30 31 25 29 -33 -14 -90 -69
-147 -87 -257 -81 -61 3 -97 10 -126 25 -57 30 -118 85 -154 140 -17 25 -31
42 -31 37z"/>
<path d="M10290 3336 c0 -2 8 -10 18 -17 15 -13 16 -12 3 4 -13 16 -21 21 -21
13z"/>
<path d="M4323 3289 c-35 -22 -46 -37 -15 -20 22 13 58 40 52 41 -3 0 -20 -10
-37 -21z"/>
<path d="M6038 3303 c7 -3 16 -2 19 1 4 3 -2 6 -13 5 -11 0 -14 -3 -6 -6z"/>
<path d="M6093 3293 c9 -2 23 -2 30 0 6 3 -1 5 -18 5 -16 0 -22 -2 -12 -5z"/>
<path d="M10330 3286 c0 -2 8 -10 18 -17 15 -13 16 -12 3 4 -13 16 -21 21 -21
13z"/>
<path d="M4249 3239 l-24 -20 28 17 c15 9 27 18 27 20 0 8 -8 4 -31 -17z"/>
<path d="M10384 3241 c7 -11 46 -35 46 -28 0 3 -12 12 -26 22 -15 9 -23 12
-20 6z"/>
<path d="M4162 3185 c-28 -20 -52 -38 -52 -40 0 -3 25 11 55 31 48 32 62 44
52 44 -1 0 -26 -16 -55 -35z"/>
<path d="M10545 3170 c31 -8 112 -13 104 -6 -2 2 -33 6 -69 9 -41 3 -54 2 -35
-3z"/>
<path d="M10668 3173 c6 -2 18 -2 25 0 6 3 1 5 -13 5 -14 0 -19 -2 -12 -5z"/>
<path d="M3905 3046 c-71 -47 -182 -117 -245 -157 -129 -82 -270 -178 -270
-185 0 -3 23 10 50 28 116 76 334 218 455 296 124 80 155 102 145 102 -3 0
-63 -38 -135 -84z"/>
<path d="M8275 3085 c43 -36 375 -241 375 -232 0 6 -223 149 -335 216 -43 25
-58 32 -40 16z"/>
<path d="M3990 3069 c-22 -18 -22 -19 -3 -10 12 6 25 16 28 21 9 15 3 12 -25
-11z"/>
<path d="M5561 2966 c-5 -12 -11 -47 -14 -78 -6 -63 5 -82 45 -76 28 4 35 30
28 110 -5 56 -7 62 -28 63 -16 1 -26 -5 -31 -19z"/>
<path d="M5810 2946 c0 -8 5 -18 10 -21 6 -3 10 1 10 9 0 8 -4 18 -10 21 -5 3
-10 -1 -10 -9z"/>
<path d="M5033 2895 c0 -33 2 -45 4 -27 2 18 2 45 0 60 -2 15 -4 0 -4 -33z"/>
<path d="M6142 2900 c0 -14 2 -19 5 -12 2 6 2 18 0 25 -3 6 -5 1 -5 -13z"/>
<path d="M3685 2874 c-51 -34 -69 -52 -29 -29 35 20 82 54 74 55 -3 0 -23 -12
-45 -26z"/>
<path d="M8675 2835 c11 -9 29 -21 40 -26 l20 -10 -20 16 c-11 9 -29 21 -40
26 l-20 10 20 -16z"/>
<path d="M7074 2825 c-17 -13 -17 -14 -2 -15 9 0 20 5 23 11 11 17 0 20 -21 4z"/>
<path d="M3590 2809 c-22 -18 -22 -19 -3 -10 12 6 25 16 28 21 9 15 3 12 -25
-11z"/>
<path d="M8740 2796 c0 -3 9 -10 20 -16 11 -6 20 -8 20 -6 0 3 -9 10 -20 16
-11 6 -20 8 -20 6z"/>
<path d="M3417 2696 c-73 -50 -110 -80 -77 -61 34 19 160 106 160 110 0 7 1 8
-83 -49z"/>
<path d="M8844 2727 c29 -25 106 -72 106 -64 0 5 -54 41 -105 71 l-30 18 29
-25z"/>
<path d="M3307 2655 c-20 -14 -37 -28 -37 -31 0 -2 18 8 40 22 35 23 47 34 37
34 -1 0 -19 -11 -40 -25z"/>
<path d="M4299 2643 c-13 -16 -12 -17 4 -4 9 7 17 15 17 17 0 8 -8 3 -21 -13z"/>
<path d="M8975 2645 c11 -9 29 -21 40 -26 l20 -10 -20 16 c-11 9 -29 21 -40
26 l-20 10 20 -16z"/>
<path d="M4203 2602 c-162 -124 -370 -291 -383 -307 -13 -16 401 305 440 341
30 29 3 12 -57 -34z"/>
<path d="M3290 2609 c-22 -18 -22 -19 -3 -10 12 6 25 16 28 21 9 15 3 12 -25
-11z"/>
<path d="M3215 2594 c-51 -34 -69 -52 -29 -29 35 20 82 54 74 55 -3 0 -23 -12
-45 -26z"/>
<path d="M4203 2569 c-35 -27 -63 -52 -63 -54 0 -3 29 18 65 46 56 44 73 60
63 59 -2 -1 -31 -23 -65 -51z"/>
<path d="M10628 2613 c7 -3 16 -2 19 1 4 3 -2 6 -13 5 -11 0 -14 -3 -6 -6z"/>
<path d="M2163 2593 c9 -2 25 -2 35 0 9 3 1 5 -18 5 -19 0 -27 -2 -17 -5z"/>
<path d="M2248 2593 c7 -3 16 -2 19 1 4 3 -2 6 -13 5 -11 0 -14 -3 -6 -6z"/>
<path d="M2118 2583 c7 -3 16 -2 19 1 4 3 -2 6 -13 5 -11 0 -14 -3 -6 -6z"/>
<path d="M3234 2574 c-18 -14 -18 -15 4 -4 12 6 22 13 22 15 0 8 -5 6 -26 -11z"/>
<path d="M4954 2559 c-19 -22 -19 -22 3 -10 24 12 39 31 25 31 -5 0 -17 -10
-28 -21z"/>
<path d="M2350 2565 c0 -2 14 -12 32 -21 17 -9 54 -37 82 -62 l51 -46 -45 48
c-39 41 -120 96 -120 81z"/>
<path d="M8170 2557 c8 -8 78 -61 155 -116 82 -60 120 -83 90 -56 -49 44 -274
203 -245 172z"/>
<path d="M9128 2543 c33 -28 132 -88 132 -80 0 4 -82 60 -135 91 -29 18 -29
18 3 -11z"/>
<path d="M7333 2543 c18 -20 107 -87 107 -80 0 2 -28 25 -62 52 -35 26 -55 39
-45 28z"/>
<path d="M3119 2529 l-24 -20 28 17 c15 9 27 18 27 20 0 8 -8 4 -31 -17z"/>
<path d="M1989 2523 c-13 -16 -12 -17 4 -4 9 7 17 15 17 17 0 8 -8 3 -21 -13z"/>
<path d="M3150 2519 c-22 -18 -22 -19 -3 -10 12 6 25 16 28 21 9 15 3 12 -25
-11z"/>
<path d="M10870 2498 c41 -45 50 -53 50 -45 0 2 -21 23 -47 47 l-48 45 45 -47z"/>
<path d="M6625 2510 c10 -11 20 -20 23 -20 3 0 -3 9 -13 20 -10 11 -20 20 -23
20 -3 0 3 -9 13 -20z"/>
<path d="M10324 2498 l-29 -33 33 29 c30 28 37 36 29 36 -2 0 -16 -15 -33 -32z"/>
<path d="M4075 2469 c-76 -62 -88 -79 -17 -24 55 43 80 66 70 65 -2 -1 -25
-19 -53 -41z"/>
<path d="M2925 2375 c-104 -68 -199 -130 -210 -139 -19 -16 -19 -16 5 -5 36
17 400 257 400 264 0 7 17 17 -195 -120z"/>
<path d="M4677 2298 c-112 -112 -140 -142 -63 -67 78 74 173 165 211 202 39
37 67 67 63 67 -4 0 -99 -91 -211 -202z"/>
<path d="M3034 2474 c-18 -14 -18 -15 4 -4 12 6 22 13 22 15 0 8 -5 6 -26 -11z"/>
<path d="M5576 2435 c-21 -25 -34 -45 -30 -45 7 0 16 10 55 63 33 44 15 31
-25 -18z"/>
<path d="M2961 2429 c-65 -42 -75 -57 -14 -19 29 17 55 36 58 41 8 13 6 11
-44 -22z"/>
<path d="M7455 2453 c6 -7 29 -27 51 -45 23 -18 70 -58 105 -88 35 -30 53 -41
39 -26 -14 16 -59 56 -100 89 -84 68 -111 87 -95 70z"/>
<path d="M9285 2445 c11 -9 29 -21 40 -26 l20 -10 -20 16 c-11 9 -29 21 -40
26 l-20 10 20 -16z"/>
<path d="M9345 2435 c11 -9 29 -21 40 -26 l20 -10 -20 16 c-11 9 -29 21 -40
26 l-20 10 20 -16z"/>
<path d="M10660 2422 c0 -5 16 -27 36 -50 19 -23 34 -49 32 -58 -4 -19 -61
-40 -132 -49 -28 -3 -68 -8 -88 -11 l-38 -6 0 -99 0 -99 135 0 135 0 0 158 0
158 -33 32 c-33 32 -47 39 -47 24z"/>
<path d="M10936 2407 c3 -10 9 -15 12 -12 3 3 0 11 -7 18 -10 9 -11 8 -5 -6z"/>
<path d="M9350 2406 c0 -3 9 -10 20 -16 11 -6 20 -8 20 -6 0 3 -9 10 -20 16
-11 6 -20 8 -20 6z"/>
<path d="M3969 2383 c-13 -16 -12 -17 4 -4 16 13 21 21 13 21 -2 0 -10 -8 -17
-17z"/>
<path d="M9419 2363 c13 -10 43 -28 65 -41 23 -13 30 -15 17 -5 -13 10 -43 28
-65 41 -23 13 -30 15 -17 5z"/>
<path d="M2020 2238 l0 -128 185 -1 c220 -2 208 -2 218 -14 5 -5 6 13 2 40 -3
28 -8 92 -12 143 l-6 93 -193 -3 -194 -3 0 -127z"/>
<path d="M3830 2274 c-110 -89 -136 -113 -110 -99 20 11 220 175 220 181 0 7
-2 5 -110 -82z"/>
<path d="M4630 2217 c-80 -78 -125 -124 -101 -102 62 55 257 245 251 244 -3 0
-70 -64 -150 -142z"/>
<path d="M10961 2344 c0 -11 3 -14 6 -6 3 7 2 16 -1 19 -3 4 -6 -2 -5 -13z"/>
<path d="M8466 2303 c23 -21 70 -58 105 -82 85 -59 56 -31 -56 53 -51 38 -72
51 -49 29z"/>
<path d="M5444 2288 l-29 -33 33 29 c17 17 32 31 32 33 0 8 -8 1 -36 -29z"/>
<path d="M10972 2295 c0 -16 2 -22 5 -12 2 9 2 23 0 30 -3 6 -5 -1 -5 -18z"/>
<path d="M7600 2307 c0 -2 15 -16 33 -33 l32 -29 -29 33 c-28 30 -36 37 -36
29z"/>
<path d="M2572 2260 c0 -19 2 -27 5 -17 2 9 2 25 0 35 -3 9 -5 1 -5 -18z"/>
<path d="M2724 2274 c-18 -14 -18 -15 4 -4 12 6 22 13 22 15 0 8 -5 6 -26 -11z"/>
<path d="M3779 2263 c-13 -16 -12 -17 4 -4 16 13 21 21 13 21 -2 0 -10 -8 -17
-17z"/>
<path d="M6905 2220 c27 -27 51 -50 54 -50 3 0 -17 23 -44 50 -27 28 -51 50
-54 50 -3 0 17 -22 44 -50z"/>
<path d="M1835 2204 c2 -33 9 -71 15 -85 9 -21 9 -19 4 11 -4 19 -10 58 -15
85 -8 50 -8 50 -4 -11z"/>
<path d="M5424 2238 l-19 -23 23 19 c21 18 27 26 19 26 -2 0 -12 -10 -23 -22z"/>
<path d="M10055 2253 c16 -3 33 -10 37 -16 5 -8 8 -6 8 6 0 13 -8 17 -37 16
-35 -2 -35 -2 -8 -6z"/>
<path d="M3729 2223 c-13 -16 -12 -17 4 -4 16 13 21 21 13 21 -2 0 -10 -8 -17
-17z"/>
<path d="M6921 2176 c25 -28 60 -68 77 -89 18 -21 32 -33 32 -27 0 6 -35 46
-77 88 -43 43 -57 55 -32 28z"/>
<path d="M7720 2227 c0 -2 15 -16 33 -33 l32 -29 -29 33 c-28 30 -36 37 -36
29z"/>
<path d="M2573 2185 c0 -22 2 -30 4 -17 2 12 2 30 0 40 -3 9 -5 -1 -4 -23z"/>
<path d="M5393 2198 c-15 -20 -25 -38 -20 -38 3 0 12 11 21 25 17 26 16 35 -1
13z"/>
<path d="M7772 2145 c37 -39 79 -90 93 -115 15 -26 23 -34 19 -20 -10 36 -34
67 -111 140 l-68 65 67 -70z"/>
<path d="M8650 2196 c0 -2 8 -10 18 -17 15 -13 16 -12 3 4 -13 16 -21 21 -21
13z"/>
<path d="M10962 2148 c-7 -29 -26 -75 -43 -102 -17 -27 -24 -44 -16 -38 24 20
66 106 73 150 9 59 1 52 -14 -10z"/>
<path d="M10231 2169 c0 -13 4 -33 9 -44 7 -14 8 -8 3 20 -7 46 -13 59 -12 24z"/>
<path d="M3649 2163 c-13 -16 -12 -17 4 -4 9 7 17 15 17 17 0 8 -8 3 -21 -13z"/>
<path d="M3630 2121 c-36 -26 -74 -58 -85 -71 -11 -13 19 7 68 44 75 58 96 77
85 76 -2 0 -32 -22 -68 -49z"/>
<path d="M8650 2167 c0 -3 33 -31 73 -63 39 -32 66 -51 59 -43 -14 19 -132
112 -132 106z"/>
<path d="M8705 2150 c10 -11 20 -20 23 -20 3 0 -3 9 -13 20 -10 11 -20 20 -23
20 -3 0 3 -9 13 -20z"/>
<path d="M2561 2128 c0 -9 -4 -25 -7 -35 -5 -17 -5 -17 6 0 6 10 9 25 7 35 -4
15 -5 15 -6 0z"/>
<path d="M8740 2126 c0 -2 8 -10 18 -17 15 -13 16 -12 3 4 -13 16 -21 21 -21
13z"/>
<path d="M8797 2070 c27 -32 43 -71 53 -135 l8 -50 1 45 c1 52 -26 116 -60
145 l-24 20 22 -25z"/>
<path d="M5312 2060 c0 -14 2 -19 5 -12 2 6 2 18 0 25 -3 6 -5 1 -5 -13z"/>
<path d="M10276 2051 c17 -37 89 -112 124 -131 13 -7 -8 18 -46 56 -38 38 -75
78 -82 89 -7 11 -5 5 4 -14z"/>
<path d="M1870 2066 c0 -16 30 -62 51 -81 13 -11 19 -13 12 -5 -6 8 -22 33
-37 54 -14 21 -26 36 -26 32z"/>
<path d="M2540 2064 c0 -5 -19 -34 -41 -64 -23 -30 -32 -46 -19 -35 29 25 73
95 66 103 -3 3 -6 1 -6 -4z"/>
<path d="M7051 2050 c14 -31 19 -36 19 -24 0 6 -7 19 -16 30 -14 18 -14 18 -3
-6z"/>
<path d="M5334 1945 c0 -66 1 -92 3 -57 2 34 2 88 0 120 -2 31 -3 3 -3 -63z"/>
<path d="M2213 2023 c9 -2 23 -2 30 0 6 3 -1 5 -18 5 -16 0 -22 -2 -12 -5z"/>
<path d="M5304 1925 c0 -60 1 -84 3 -52 2 32 2 81 0 110 -2 29 -3 3 -3 -58z"/>
<path d="M4436 1995 c-3 -9 -5 -51 -4 -93 l1 -77 7 90 c7 95 6 106 -4 80z"/>
<path d="M7077 1930 c6 -110 11 -125 12 -30 0 41 -4 84 -8 95 -4 11 -6 -18 -4
-65z"/>
<path d="M3509 1994 c0 -5 -6 -51 -13 -101 -6 -51 -9 -93 -5 -93 7 0 29 193
23 199 -2 2 -4 0 -5 -5z"/>
<path d="M4411 1984 c0 -11 3 -14 6 -6 3 7 2 16 -1 19 -3 4 -6 -2 -5 -13z"/>
<path d="M7891 1964 c0 -11 3 -14 6 -6 3 7 2 16 -1 19 -3 4 -6 -2 -5 -13z"/>
<path d="M7052 1950 c0 -14 2 -19 5 -12 2 6 2 18 0 25 -3 6 -5 1 -5 -13z"/>
<path d="M1965 1942 c11 -13 29 -28 40 -34 21 -11 18 -8 -30 32 -29 24 -29 24
-10 2z"/>
<path d="M4403 1890 c0 -41 2 -58 4 -37 2 20 2 54 0 75 -2 20 -4 3 -4 -38z"/>
<path d="M7922 1940 c0 -14 3 -45 7 -70 l8 -45 1 40 c0 22 -4 54 -8 70 -7 27
-8 28 -8 5z"/>
<path d="M2416 1925 c-37 -28 -131 -58 -206 -66 l-75 -8 86 4 c69 2 96 8 142
31 32 15 62 33 68 41 15 17 9 16 -15 -2z"/>
<path d="M10806 1925 c-11 -8 -15 -15 -9 -15 6 0 16 7 23 15 16 19 11 19 -14
0z"/>
<path d="M3473 1885 c0 -22 2 -30 4 -17 2 12 2 30 0 40 -3 9 -5 -1 -4 -23z"/>
<path d="M7903 1875 c0 -27 2 -38 4 -22 2 15 2 37 0 50 -2 12 -4 0 -4 -28z"/>
<path d="M2030 1896 c0 -8 69 -36 89 -36 9 1 0 7 -19 14 -19 7 -43 17 -52 21
-10 4 -18 4 -18 1z"/>
<path d="M10705 1884 c-49 -15 -175 -14 -220 1 l-20 7 20 -14 c30 -20 210 -17
255 4 43 20 31 21 -35 2z"/>
<path d="M4403 1733 c9 -2 23 -2 30 0 6 3 -1 5 -18 5 -16 0 -22 -2 -12 -5z"/>
<path d="M3538 1723 c7 -3 16 -2 19 1 4 3 -2 6 -13 5 -11 0 -14 -3 -6 -6z"/>
<path d="M7140 1715 c24 -8 46 -13 48 -11 5 5 -59 26 -77 25 -9 0 4 -7 29 -14z"/>
<path d="M8879 1719 c72 -8 115 -27 172 -73 14 -12 6 -2 -18 21 -46 45 -105
64 -186 62 -30 -1 -22 -4 32 -10z"/>
<path d="M3580 1710 c8 -5 20 -10 25 -10 6 0 3 5 -5 10 -8 5 -19 10 -25 10 -5
0 -3 -5 5 -10z"/>
<path d="M8728 1705 c-87 -32 -148 -105 -174 -211 -15 -58 -15 -75 -4 -133 7
-36 17 -75 23 -86 13 -25 87 -104 109 -116 9 -5 -7 15 -35 43 -84 85 -109 198
-70 319 23 73 110 161 179 183 27 8 40 15 29 15 -11 0 -37 -7 -57 -14z"/>
<path d="M3652 1671 c21 -18 51 -48 68 -69 16 -20 30 -33 30 -29 0 12 -92 107
-115 119 -11 5 -3 -4 17 -21z"/>
<path d="M4239 1679 l-24 -20 28 17 c15 9 27 18 27 20 0 8 -8 4 -31 -17z"/>
<path d="M4560 1696 c0 -3 9 -10 20 -16 11 -6 20 -8 20 -6 0 3 -9 10 -20 16
-11 6 -20 8 -20 6z"/>
<path d="M6889 1679 l-24 -20 28 17 c15 9 27 18 27 20 0 8 -8 4 -31 -17z"/>
<path d="M7200 1697 c0 -3 12 -12 26 -22 15 -9 23 -12 20 -6 -7 11 -46 35 -46
28z"/>
<path d="M5119 1643 l-34 -38 38 34 c34 33 42 41 34 41 -2 0 -19 -17 -38 -37z"/>
<path d="M3259 1643 l-24 -28 28 24 c25 23 32 31 24 31 -2 0 -14 -12 -28 -27z"/>
<path d="M4610 1667 c0 -2 15 -16 33 -33 l32 -29 -29 33 c-28 30 -36 37 -36
29z"/>
<path d="M6834 1638 l-19 -23 23 19 c12 11 22 21 22 23 0 8 -8 2 -26 -19z"/>
<path d="M7275 1640 c10 -11 20 -20 23 -20 3 0 -3 9 -13 20 -10 11 -20 20 -23
20 -3 0 3 -9 13 -20z"/>
<path d="M5221 1530 c-63 -70 -89 -105 -84 -115 17 -29 165 -205 173 -205 12
0 105 91 118 117 11 19 8 21 -36 29 -26 4 -50 7 -54 6 -5 -1 -8 59 -8 133 0
74 -4 135 -9 135 -5 0 -50 -45 -100 -100z"/>
<path d="M9106 1577 c3 -10 9 -15 12 -12 3 3 0 11 -7 18 -10 9 -11 8 -5 -6z"/>
<path d="M4698 1555 c5 -11 12 -27 15 -35 5 -13 6 -13 6 1 1 8 -6 24 -15 35
-15 19 -15 19 -6 -1z"/>
<path d="M5600 1565 c1 -6 7 -21 16 -35 l15 -25 -7 25 c-7 26 -24 52 -24 35z"/>
<path d="M7871 1498 c-41 -44 -47 -55 -37 -70 15 -25 18 -24 55 23 29 35 52
99 36 99 -3 0 -27 -23 -54 -52z"/>
<path d="M7075 1530 c3 -5 8 -10 11 -10 2 0 4 5 4 10 0 6 -5 10 -11 10 -5 0
-7 -4 -4 -10z"/>
<path d="M4420 1528 c-1 -2 -3 -52 -6 -112 -2 -60 -6 -112 -9 -114 -3 -3 -5
30 -6 74 0 43 -3 73 -6 67 -2 -7 -22 -13 -43 -13 -37 0 -38 0 -45 -47 -6 -44
-5 -49 21 -70 67 -53 103 -53 172 -3 41 29 42 32 42 85 0 55 0 56 -46 83 -26
15 -53 33 -60 40 -8 7 -14 12 -14 10z"/>
<path d="M6988 1494 c-27 -13 -48 -26 -48 -27 0 -1 20 -2 45 -2 35 0 45 4 43
15 -1 8 1 21 5 28 10 15 11 16 -45 -14z"/>
<path d="M9147 1454 c12 -138 -44 -251 -150 -304 -33 -16 -54 -30 -46 -30 35
0 124 67 163 123 39 55 41 63 44 140 2 45 -1 93 -6 107 -8 19 -9 10 -5 -36z"/>
<path d="M4721 1484 c0 -11 3 -14 6 -6 3 7 2 16 -1 19 -3 4 -6 -2 -5 -13z"/>
<path d="M5032 1475 c0 -16 2 -22 5 -12 2 9 2 23 0 30 -3 6 -5 -1 -5 -18z"/>
<path d="M7362 1475 c0 -16 2 -22 5 -12 2 9 2 23 0 30 -3 6 -5 -1 -5 -18z"/>
<path d="M7720 1406 c0 -53 2 -96 5 -96 3 0 21 17 40 38 l35 37 110 -112 c99
-102 110 -110 110 -85 0 21 -24 51 -117 144 -65 64 -133 129 -150 143 l-33 27
0 -96z"/>
<path d="M5631 1419 c-1 -90 -30 -158 -91 -213 -62 -56 -116 -79 -198 -84 -66
-4 -78 -2 -137 27 -87 43 -146 120 -165 214 l-8 42 -1 -37 c-2 -57 31 -118 92
-174 134 -123 294 -122 426 1 28 26 59 66 70 88 24 50 35 140 22 182 -8 25 -9
17 -10 -46z"/>
<path d="M6751 1464 c0 -11 3 -14 6 -6 3 7 2 16 -1 19 -3 4 -6 -2 -5 -13z"/>
<path d="M7948 1468 c-24 -20 -30 -64 -14 -103 29 -68 56 -30 56 78 0 39 -13
47 -42 25z"/>
<path d="M8852 1467 c-5 -6 -12 -27 -15 -44 -6 -32 -6 -33 28 -33 19 0 36 5
36 10 4 27 4 68 0 65 -2 -3 -12 0 -21 5 -12 7 -21 6 -28 -3z"/>
<path d="M4105 1394 c4 -101 25 -146 97 -205 l53 -43 -53 57 c-64 69 -83 110
-93 202 l-8 70 4 -81z"/>
<path d="M8073 1400 c0 -41 2 -58 4 -37 2 20 2 54 0 75 -2 20 -4 3 -4 -38z"/>
<path d="M8140 1401 c0 -49 -4 -63 -26 -86 l-26 -29 -14 25 c-7 13 -13 36 -14
50 0 15 -7 32 -15 39 -13 11 -15 -2 -15 -108 l0 -121 80 84 c74 77 80 87 80
125 0 48 -14 80 -35 80 -12 0 -15 -14 -15 -59z"/>
<path d="M5340 1421 c0 -7 33 -11 91 -11 49 0 88 4 85 8 -8 13 -176 15 -176 3z"/>
<path d="M8012 1410 c0 -14 2 -19 5 -12 2 6 2 18 0 25 -3 6 -5 1 -5 -13z"/>
<path d="M6751 1375 c-1 -52 21 -110 59 -155 16 -19 14 -10 -9 36 -17 33 -35
85 -40 115 l-9 54 -1 -50z"/>
<path d="M7360 1378 c0 -81 -97 -206 -193 -248 -63 -28 -160 -29 -222 -1 -57
25 -59 19 -2 -11 34 -18 57 -22 117 -22 97 2 156 27 223 97 69 71 118 193 87
212 -6 4 -10 -7 -10 -27z"/>
<path d="M4708 1309 c-9 -27 -12 -47 -8 -44 11 7 33 72 28 85 -2 5 -10 -13
-20 -41z"/>
<path d="M8680 1341 c0 -18 64 -84 109 -113 45 -28 91 -37 91 -18 0 6 -4 10
-9 10 -5 0 -11 9 -14 20 -3 11 -13 20 -22 20 -9 0 -13 4 -10 10 3 6 -1 7 -9 4
-10 -4 -16 -1 -16 7 -1 27 -120 85 -120 60z"/>
<path d="M3180 1316 c0 -11 30 -66 36 -66 2 0 -3 15 -12 33 -19 36 -24 44 -24
33z"/>
<path d="M3752 1275 c-7 -14 -33 -49 -59 -78 -30 -32 -39 -46 -23 -36 27 17
107 126 98 134 -2 3 -10 -6 -16 -20z"/>
<path d="M4631 1192 c-30 -30 -46 -50 -35 -44 20 11 94 87 94 97 0 8 -1 7 -59
-53z"/>
<path d="M3260 1197 c25 -26 68 -59 95 -72 56 -27 132 -44 122 -28 -4 6 -25
13 -47 16 -54 7 -115 40 -170 90 l-45 42 45 -48z"/>
<path d="M4298 1120 c40 -34 177 -40 233 -10 34 19 17 20 -36 4 -55 -17 -124
-12 -184 12 l-36 14 23 -20z"/>
<path d="M3588 1125 c-3 -3 -25 -9 -49 -14 -43 -9 -43 -9 -9 -10 19 0 46 6 60
14 14 8 20 14 14 15 -6 0 -13 -2 -16 -5z"/>
<path d="M8785 1115 c44 -15 114 -19 132 -7 6 4 -10 7 -35 7 -26 0 -67 3 -92
7 l-45 6 40 -13z"/>
<path d="M8066 821 c-4 -6 -1 -11 6 -11 6 0 36 -26 65 -57 28 -32 54 -55 57
-52 3 3 -23 33 -58 68 -39 38 -66 59 -70 52z"/>
<path d="M8035 800 c-3 -5 -1 -10 4 -10 6 0 11 5 11 10 0 6 -2 10 -4 10 -3 0
-8 -4 -11 -10z"/>
</g>
</svg>
