<svg xmlns="http://www.w3.org/2000/svg" xmlns:xlink="http://www.w3.org/1999/xlink" width="64" height="64" viewBox="0 0 48 48"><linearGradient id="a" x1="0" x2=".907" y1=".5" y2=".92" gradientTransform="matrix(47.515 0 0 42.206 .245 2.926)" gradientUnits="userSpaceOnUse"><stop offset="0" stop-color="#00c4ff"/><stop offset=".839" stop-color="#0072ff"/></linearGradient><path fill="url(#a)" fill-rule="evenodd" d="m20.676 7.113c-1.16.079-2.164-.795-2.242-1.951-.078-1.155.801-2.157 1.96-2.236h13.989c1.159 0 2.538.832 3.078 1.856l9.928 18.824c.54 1.024.483 2.655-.127 3.64l-9.99 16.119c-.61.984-2.046 1.776-3.205 1.767l-7.12-.058h-9.97c-1.158 0-1.784-.886-1.395-1.978l.255-.718c.388-1.092 1.644-1.988 2.802-2.001l15.651-.169 9.233-14.897-9.459-18.055zm-9.642 29.496c.525 1.034.115 2.301-.914 2.829-1.028.527-2.292.12-2.82-.909l-6.657-11.974c-.563-1.012-.524-2.633.086-3.618l7.974-12.865c.61-.985 1.913-1.303 2.908-.71h.001c.995.593 1.308 1.874.697 2.859l-7.874 12.704zm7.966-19.609-11 12h5l6-7 6 7h5l-3.348-3.652 2.348-2.348 6 6h5l-11-11-5.086 4.359zm-1 9-3 3h3z"/></svg>