<svg height="48pt" viewBox="0 0 48 48" width="48pt" xmlns="http://www.w3.org/2000/svg" xmlns:xlink="http://www.w3.org/1999/xlink"><linearGradient id="a" gradientTransform="matrix(43.93 0 0 43 2 2.5)" gradientUnits="userSpaceOnUse" x1="0" x2="1" y1=".5" y2=".5"><stop offset="0" stop-color="#5800e2"/><stop offset="1" stop-color="#ff00e6"/></linearGradient><path d="m42.489 23.362c.007.213.011.425.011.638 0 1.21-.12 2.41-.12 2.41-.127.651.431 1.31 1.245 1.47.814.16 1.596-.328 1.745-1.09 0 0 .13-1.39.13-2.79 0-5.7-2.27-11.17-6.3-15.2s-9.5-6.3-15.2-6.3c-2.47 0-4.92.42-4.92.42-1.286.458-2.104 1.464-1.825 2.245.279.781 1.401 1.092 2.505.695 0 0 2.11-.36 4.24-.36 4.9 0 9.61 1.95 13.08 5.42 3.288 3.288 5.211 7.689 5.407 12.31-.813-.217-1.596-.54-2.132-1.209-.091-.112.292-.01.213-.185-.055-.149-.107-.236-.183-.365-.319-.472-.646-.941-.932-1.434-.333-.006-.666-.01-.998-.016-.418-.492-.88-.941-1.307-1.425.036.266.084.531.084.8-.285-.163-.567-.334-.822-.542-.278-.252-.535-.527-.808-.784.035.195.073.389.105.584-.562-.225-1.089-.564-1.484-1.027-.006.115-.011.229-.016.344-.351-.135-.694-.286-1.045-.422-.883-.332-1.758-.714-2.691-.883-1.028-.052-2.114.087-3.086-.332-.671-.261-1.22-.788-1.541-1.43-.586-1.094-.506-2.394-.336-3.582-.747-.495-1.556-.888-2.387-1.22-.388-.139-.751-.342-1.156-.43-1.463-.483-2.961-.855-4.475-1.135-.658-.145-1.331-.213-1.988-.359-.629-.121-1.266-.186-1.902-.262-3.022-.348-6.067-.48-9.108-.453-.415.003-.832-.005-1.248-.002-.416.003-.831.018-1.244.07 4.577.083 9.166.458 13.648 1.422.866.113 1.703.371 2.547.586.409.096.791.278 1.198.383.678.172 1.34.399 2.011.598.411.178.855.259 1.262.445.609.259 1.203.549 1.795.846.076.051.197.076.219.181.153.644.235 1.304.422 1.94.351 1.19.798 2.362 1.431 3.433-.674.321-1.256.806-1.765 1.346-.726.799-1.29 1.763-1.532 2.82-.294 1.082-.233 2.13.022 3.213.277.969.771 1.676 1.443 2.428 1.348 1.535 3.446 2.423 5.49 2.187 2.464-.198 5.031.198 7.196 1.436 1.136.657 2.21 1.465 3.021 2.508 1.103 1.253 1.932 2.825 2.565 4.365.092.232.176.47.304.686 0-.289-.106-.559-.203-.825-.295-.786-.628-1.66-1.045-2.39-.491-.877-1.031-1.734-1.711-2.479-.992-1.195-2.203-2.216-3.588-2.928 1.056.136 2.084.443 3.086.793 1.073.384 2.104.892 3.03 1.559.914.741 1.719 1.627 2.312 2.648.308.494.503 1.147.772 1.661-.237-1.191-.833-2.386-1.58-3.332-.442-.574-1.004-1.033-1.555-1.495-1.272-1.003-2.751-1.713-4.281-2.226-2.809-.922-5.781-1.275-8.729-1.274-.712.004-1.431-.089-2.101-.339-1.548-.556-2.767-1.723-3.147-3.323-.49-1.737.054-3.61 1.332-4.877 1.038-1.06 2.551-1.664 4.037-1.519 1.536.11 2.996.647 4.43 1.172 1.173.458 2.353.911 3.486 1.465.03.327.056.662.176.972.161.317.507.469.815.612.585.262 1.14.496 1.638.902.369.298.675.661 1.026.978.117-.187.136-.233.169-.298.019-.02.006.001.032-.028.217-.228.522-.306.811-.421zm-4.199 14.628c.591.58.443 1.691-.329 2.48-2.641 2.7-8.181 5.03-13.961 5.03-5.7 0-11.17-2.27-15.2-6.3s-6.3-9.5-6.3-15.2c0-1.78.22-3.55.22-3.55.237-.949 1.082-1.556 1.885-1.355.803.201 1.289 1.033 1.085 1.855 0 0-.19 1.52-.19 3.05 0 4.9 1.95 9.61 5.42 13.08s8.18 5.42 13.08 5.42c4.97 0 9.74-2.01 11.82-4.132.773-.788 1.879-.958 2.47-.378zm-13.839-25.767c-5.543-.047-11.105.208-16.584 1.093-1.435.241-2.879.461-4.283.85 4.694-.66 9.423-1.106 14.164-1.211 2.309-.015 4.623.059 6.922.289-.077-.339-.156-.679-.219-1.021zm.362 1.502c-3.119.293-6.18 1.034-9.149 2.017-2.052.704-4.067 1.527-6.008 2.498-.689.347-1.385.682-2.039 1.094.738-.316 1.457-.675 2.203-.971 4.855-1.996 9.999-3.395 15.258-3.664-.101-.321-.196-.645-.265-.974zm6.183 1.025c.551.248 1.131.422 1.678.68 1.67.73 3.274 1.64 4.685 2.8.511.424.988.89 1.401 1.409.108.118.288.029.428.05-.157-.289-.444-.475-.667-.709-1.127-1.106-2.421-2.038-3.82-2.769-1.179-.612-2.411-1.147-3.705-1.461z" fill="url(#a)" fill-rule="evenodd"/></svg>