<svg height="48pt" viewBox="0 0 48 48" width="48pt" xmlns="http://www.w3.org/2000/svg" xmlns:xlink="http://www.w3.org/1999/xlink"><linearGradient id="a" gradientTransform="matrix(45 0 0 39.194 1.5 4.403)" gradientUnits="userSpaceOnUse" x1="1.562714" x2="-.052491" y1=".543163" y2=".538958"><stop offset=".34940980668" stop-color="#b2e56b"/><stop offset=".53849222448" stop-color="#c2e964"/><stop offset=".90405156556" stop-color="#ecf451"/><stop offset="1" stop-color="#faf74b"/></linearGradient><path d="m14.565 10.21v20.322c0 3.194 2.589 5.807 5.806 5.807h13.064c3.217 0 5.807-2.613 5.807-5.807v-10.887c0-2.758-2.275-5.08-5.081-5.08-1.425 0-2.706.58-3.629 1.596-.923-1.016-2.203-1.596-3.629-1.596-2.806 0-5.08 2.322-5.08 5.08v8.71h2.903v-8.71c0-1.161.975-2.177 2.177-2.177s2.178 1.016 2.178 2.177v8.71h2.903v-8.71c0-1.161.975-2.177 2.177-2.177s2.178 1.016 2.178 2.177v10.887c0 1.597-1.295 2.903-2.904 2.903h-13.064c-1.608 0-2.903-1.306-2.903-2.903v-20.322zm-10.162-2.904h27.717c6.402 0 11.477 5.075 11.477 11.477v21.911h-21.911c-6.401 0-11.476-5.075-11.476-11.477v-13.201c.001-1.52-1.384-2.905-2.904-2.903h-2.903zm-2.903-2.903v11.613h5.806v13.201c0 7.961 6.419 14.38 14.38 14.38h24.814v-24.814c0-7.961-6.419-14.38-14.38-14.38z" fill="url(#a)" fill-rule="evenodd"/></svg>